<?xml version="1.0" standalone="no"?>
<!DOCTYPE svg PUBLIC "-//W3C//DTD SVG 20010904//EN"
 "http://www.w3.org/TR/2001/REC-SVG-20010904/DTD/svg10.dtd">
<svg version="1.0" xmlns="http://www.w3.org/2000/svg"
 width="260.000000pt" height="280.000000pt" viewBox="0 0 260.000000 280.000000"
 preserveAspectRatio="xMidYMid meet">
<metadata>
Created by potrace 1.16, written by Peter Selinger 2001-2019
</metadata>
<g transform="translate(0.000000,280.000000) scale(0.100000,-0.100000)"
fill="#5C8018" stroke="none">
<path d="M830 2209 c-291 -42 -512 -322 -486 -614 11 -123 60 -241 137 -328
104 -119 854 -776 885 -777 26 0 649 544 830 724 75 76 108 117 132 167 112
231 71 480 -108 660 -229 232 -557 234 -783 5 l-71 -72 -71 71 c-83 82 -183
139 -282 160 -74 16 -101 17 -183 4z"/>
</g>
</svg>
